<svg width="186" height="186" viewBox="0 0 186 186" fill="none" xmlns="http://www.w3.org/2000/svg">
<circle cx="93.0023" cy="93.0001" r="93" fill="url(#paint0_linear_17_1260)"/>
<path d="M91.0969 31.8442C89.7318 34.0955 88.7498 36.4187 88.7498 37.4485V38.1671L88.1271 37.688C87.217 36.9695 86.8817 37.0653 86.6901 38.0713C86.6182 38.5742 86.4027 39.5801 86.2111 40.3226C86.0195 41.065 85.8758 42.2386 85.8758 42.9092V44.1307L84.7501 43.2685C83.9118 42.6458 83.6005 42.5021 83.4807 42.7416C83.2412 43.1487 82.8341 45.7114 82.6185 47.8669L82.4748 49.5434L81.5168 49.0884C81.0139 48.8249 80.5109 48.7052 80.4151 48.801C80.1756 49.0165 80.1995 53.9982 80.439 55.6747L80.6306 57.0638L79.3613 56.4651C78.6667 56.1298 77.9482 55.8663 77.8045 55.8663C77.1579 55.8663 77.7327 61.1354 78.5949 63.2909C78.8104 63.8418 78.9302 64.3208 78.8823 64.3926C78.8104 64.4405 78.2596 64.3687 77.6608 64.201C77.0381 64.0573 76.4872 63.9855 76.3914 64.0813C76.1519 64.2968 76.9423 67.8175 77.7566 70.2126C78.1398 71.3382 78.4033 72.2962 78.3314 72.3441C78.2835 72.416 77.7806 72.2723 77.2297 72.0567C76.6788 71.8412 76.1759 71.6975 76.104 71.7693C75.8406 72.0567 77.11 76.248 77.9961 77.8527C78.4991 78.8347 78.9302 79.7208 78.9302 79.8406C78.9302 79.9843 78.4991 80.0322 77.8524 79.9124C77.11 79.8166 76.7747 79.8406 76.7747 80.0322C76.7747 80.5591 78.4751 83.8882 79.505 85.3971C81.0618 87.6963 81.0378 87.5526 80.0319 87.4328C79.3613 87.361 79.1697 87.4089 79.1697 87.7202C79.1697 87.9358 79.984 89.7321 80.9899 91.696C82.4988 94.6179 82.7383 95.2885 82.4269 95.3364C81.8282 95.4562 81.3731 94.9772 80.5588 93.3965C80.1756 92.6061 79.4331 91.3607 78.9302 90.6182C78.4272 89.8758 77.7806 88.774 77.4692 88.1274C76.9902 87.1215 76.2956 86.5946 76.2956 87.2412C76.2956 87.361 76.1998 87.4807 76.0561 87.4807C75.9364 87.4807 75.6729 86.9059 75.4574 86.2114C75.0742 84.8941 72.0564 79.7927 71.5535 79.625C71.3858 79.5771 71.0745 79.8645 70.8589 80.2477C70.4757 80.9183 70.4518 80.9423 69.7812 80.5591C69.4219 80.3435 69.0387 79.9603 68.9669 79.6969C68.6315 78.667 64.2247 72.392 63.8415 72.392C63.7457 72.392 63.4822 73.0626 63.2427 73.877L62.8356 75.3379L62.0931 74.0686C61.686 73.35 60.2968 71.6975 59.0275 70.3802L56.7043 67.9612L56.4169 68.6797C56.2492 69.0629 56.0576 69.9012 55.9858 70.5239C55.9379 71.1706 55.7942 71.6735 55.6744 71.6735C55.5547 71.6735 55.0996 71.0987 54.6685 70.4042C54.2135 69.7336 52.8962 68.2486 51.7466 67.1469C49.4234 64.9195 49.4713 64.9195 49.136 67.1709L48.9683 68.2965L47.2439 66.5482C45.6632 64.9435 43.3161 63.2909 42.5976 63.2909C42.382 63.2909 42.2862 63.6981 42.2862 64.5124V65.7339L41.5198 65.159C39.8433 63.8657 38.3584 63.3149 30.8619 61.1593C28.8261 60.5606 28.6345 60.5606 28.6345 61.0156C28.6345 61.7102 31.8199 67.602 32.9695 69.015C33.5922 69.7815 34.0473 70.5 33.9755 70.5718C33.8797 70.6437 33.5922 70.7155 33.3048 70.7155C32.9935 70.7155 32.6342 70.8592 32.4905 71.0508C32.275 71.3143 32.4666 71.6975 33.5204 72.9429C34.2389 73.7812 35.2448 74.811 35.7478 75.2182L36.6579 75.9606L35.3167 75.9846C34.3826 75.9846 33.7838 76.1283 33.4246 76.4157L32.8977 76.8468L35.0293 78.8586C36.1789 79.9843 37.544 81.1099 38.047 81.3734C38.526 81.6369 38.9092 81.9482 38.8613 82.068C38.8134 82.1877 38.1668 82.4512 37.4003 82.6188C35.5322 83.026 35.4604 83.1218 36.107 83.8163C36.9213 84.7025 39.3643 86.5946 40.6576 87.3131C42.0946 88.1513 42.2383 88.3908 41.4 88.6782C40.2265 89.1094 39.6517 89.4686 39.6517 89.78C39.6517 90.1871 42.2144 92.0073 44.1543 92.9654C44.9686 93.3725 45.6393 93.8276 45.6393 93.9473C45.6393 94.0671 45.2081 94.4024 44.7052 94.6658C43.4837 95.2885 43.364 95.5041 44.0106 95.9831C44.801 96.5339 47.8906 97.6596 49.9024 98.1386C50.8365 98.3781 51.6268 98.6176 51.6268 98.7134C51.6029 98.7853 51.2676 99.0727 50.8365 99.3361C50.4054 99.5996 50.0701 99.9828 50.0701 100.174C50.0701 100.605 52.4651 101.971 54.3811 102.617C55.1715 102.881 56.5366 103.168 57.4468 103.24C58.3329 103.288 59.0514 103.432 59.0514 103.503C59.0514 103.599 58.8359 103.863 58.5485 104.078C58.285 104.318 58.0934 104.629 58.1653 104.797C58.3329 105.324 61.5662 106.809 63.7936 107.336C65.542 107.791 65.997 107.982 65.997 108.318C65.997 108.557 65.8294 108.82 65.6138 108.892C65.3983 108.964 62.9314 109.036 60.1052 109.036C56.4408 109.036 54.9799 109.108 54.9799 109.299C54.9799 109.467 55.2194 109.946 55.4828 110.401C55.7702 110.856 55.9618 111.263 55.9139 111.311C55.866 111.359 54.9559 111.287 53.9021 111.168C51.052 110.832 46.5973 111.192 46.5973 111.766C46.5973 111.934 46.9805 112.509 47.4595 113.06C48.3935 114.161 48.3935 114.185 46.4775 114.425C45.8309 114.497 44.4657 114.832 43.4837 115.143C42.4778 115.455 41.2803 115.766 40.7773 115.862C40.2983 115.958 39.8193 116.125 39.7475 116.245C39.5798 116.532 40.3223 117.898 40.7534 118.065C41.5677 118.377 40.9929 118.76 39.2445 119.047C37.1848 119.359 33.9515 120.245 33.4964 120.604C32.9695 120.987 33.1372 121.37 34.1431 122.113C34.67 122.496 35.1011 122.879 35.1011 122.951C35.1011 123.023 34.6461 123.239 34.0952 123.406C33.5204 123.574 32.5624 123.957 31.9636 124.268C30.5266 124.987 26 128.627 26 129.058C26 129.226 26.4551 129.49 27.0299 129.633C27.5807 129.801 29.0177 130.184 30.1913 130.543C31.7002 130.974 32.9456 131.166 34.2868 131.166L36.2507 131.19L35.7957 132.076C34.9574 133.705 34.9814 133.705 38.4542 133.705C40.7055 133.705 41.8312 133.609 42.4539 133.346C43.5077 132.891 43.6274 132.986 43.0047 133.777C42.7413 134.112 42.4539 134.711 42.382 135.094C42.2383 135.741 42.3102 135.812 43.0526 135.932C44.1064 136.124 46.717 135.789 47.8906 135.286C48.4175 135.07 48.8725 134.926 48.9204 134.974C48.9444 135.022 48.8246 135.573 48.6091 136.196C48.1301 137.561 48.3696 137.848 49.7108 137.609C51.1478 137.369 53.6147 136.555 54.4769 136.076L55.2673 135.597L55.1236 136.268C55.0517 136.627 54.908 137.345 54.8122 137.872L54.6685 138.782L55.4828 138.615C56.9917 138.303 59.1712 137.513 60.8237 136.675C61.7339 136.22 62.5242 135.884 62.5721 135.932C62.62 135.98 62.5482 136.315 62.4045 136.675C62.1171 137.465 62.0931 138.663 62.3566 138.83C62.7398 139.07 67.8651 136.387 68.9429 135.405C69.5177 134.854 70.0925 134.423 70.1883 134.423C70.2841 134.423 70.3081 135.07 70.2123 135.884L70.0686 137.345L70.7392 137.178C71.9367 136.89 74.4994 135.214 75.7687 133.849C76.4633 133.106 77.086 132.507 77.11 132.507C77.1579 132.507 77.1339 132.986 77.0621 133.585C76.9184 134.902 77.1339 134.95 78.8104 133.968C80.1277 133.202 81.7084 131.717 81.924 131.046C82.3072 129.873 82.403 131.022 82.3311 136.1L82.2593 141.608L81.4929 141.944C81.0618 142.111 80.463 142.542 80.1516 142.902L79.5768 143.524H74.6431H69.7093L69.3022 142.83C68.1046 140.674 65.0869 140.674 63.6738 142.782C63.0511 143.716 62.9793 144.554 63.4583 145.704C64.057 147.141 64.8713 147.692 66.3563 147.692C67.8651 147.692 68.7992 147.165 69.3261 145.967L69.6854 145.201H74.5473H79.4092L79.8882 146.135C80.5348 147.428 81.2055 147.836 82.5946 147.836C83.6484 147.836 83.8879 147.74 84.7022 146.901C85.5405 146.063 85.6363 145.848 85.6363 144.722C85.6363 143.644 85.5405 143.381 84.8938 142.782L84.1513 142.087L84.2471 136.627C84.319 133.633 84.4387 131.022 84.5345 130.807C84.6304 130.591 85.2291 130.136 85.8758 129.777C87.1451 129.082 88.7738 127.334 89.8755 125.466C90.6658 124.101 91.0251 123.885 91.2406 124.652C91.3125 124.963 91.3843 129.322 91.3843 134.375V143.548L90.57 144.315C89.4923 145.345 89.2528 146.686 89.8994 148.171C90.6898 149.919 92.5579 150.518 94.2105 149.512C96.2462 148.267 96.1504 144.53 94.0428 143.74L93.468 143.501L93.6357 134.591C93.8033 125.131 93.8752 124.125 94.4021 124.125C94.5937 124.125 94.7374 124.244 94.7374 124.412C94.7374 124.556 95.1685 125.37 95.7193 126.184C96.5816 127.502 97.9707 128.963 99.8148 130.472C100.414 130.974 100.414 130.974 100.581 136.651C100.749 142.327 100.749 142.351 100.222 142.782C99.8148 143.093 99.6711 143.548 99.5753 144.53C99.4795 145.752 99.5274 145.919 100.246 146.71C100.701 147.237 101.372 147.692 101.899 147.836C103.527 148.267 105.323 147.333 105.635 145.896L105.802 145.201H110.305H114.832L115.383 146.207C116.101 147.524 116.796 147.883 118.4 147.764C121.729 147.524 122.687 143.381 119.837 141.584C119.239 141.225 118.783 141.129 117.969 141.201C117.083 141.297 116.748 141.513 115.862 142.423L114.808 143.548L110.281 143.572L105.755 143.62L104.94 142.734C104.437 142.183 103.91 141.848 103.551 141.848C102.952 141.848 102.952 141.8 102.809 139.285C102.713 137.896 102.641 135.717 102.617 134.447C102.617 133.178 102.521 131.621 102.425 130.974C102.21 129.681 102.258 129.705 103.407 131.621C103.791 132.292 104.581 133.082 105.491 133.681C107.694 135.19 107.671 135.19 107.671 133.561V132.172L108.581 133.25C109.06 133.825 109.778 134.591 110.185 134.974C110.928 135.645 114.353 137.537 114.856 137.537C115.071 137.537 115.119 137.13 115.047 135.98L114.904 134.423L116.173 135.501C116.867 136.1 118.544 137.106 119.909 137.752C122.735 139.07 122.951 139.022 122.544 137.106C122.424 136.483 122.352 135.932 122.4 135.884C122.472 135.836 122.879 136.076 123.358 136.435C124.412 137.249 125.585 137.752 127.406 138.184C128.196 138.351 128.986 138.615 129.154 138.758C129.322 138.902 129.633 138.95 129.849 138.878C130.184 138.758 130.232 138.471 130.112 137.297C130.04 136.507 130.04 135.86 130.088 135.86C130.16 135.86 130.447 136.004 130.735 136.196C131.214 136.507 135.477 137.537 136.291 137.537C136.722 137.537 136.77 136.675 136.411 135.741C136.195 135.166 136.219 135.118 136.579 135.262C137.776 135.765 142.255 136.052 142.518 135.645C142.59 135.501 142.446 134.854 142.183 134.184C141.752 133.058 141.752 132.962 142.111 133.13C143.357 133.633 144.65 133.753 147.093 133.561C149.679 133.346 149.703 133.346 149.679 132.747C149.655 132.412 149.56 131.933 149.464 131.645C149.32 131.166 149.392 131.142 150.709 131.142C152.122 131.166 156.888 129.945 158.325 129.226L159.02 128.843L157.727 127.693C156.385 126.496 152.362 123.646 152.003 123.646C151.883 123.646 151.404 123.478 150.925 123.286L150.063 122.927L151.021 121.969C151.548 121.442 151.979 120.915 151.979 120.82C151.979 120.508 147.739 119.143 145.799 118.832C144.794 118.664 144.075 118.425 144.075 118.257C144.075 118.113 144.338 117.73 144.674 117.419C145.009 117.107 145.273 116.724 145.273 116.556C145.273 116.149 143.62 115.67 139.62 114.856L136.483 114.209L137.297 113.155C137.728 112.581 138.087 111.958 138.087 111.79C138.087 111.311 135.86 111.096 132.531 111.263C130.711 111.335 129.705 111.311 129.705 111.144C129.705 111.024 129.896 110.593 130.112 110.21C130.328 109.85 130.423 109.443 130.328 109.347C130.232 109.252 127.621 109.132 124.556 109.084C119.334 109.012 118.975 108.964 118.855 108.557C118.688 107.91 119.023 107.719 121.035 107.288C122.951 106.857 126.663 105.348 127.094 104.821C127.31 104.557 127.31 104.414 127.07 104.126C126.711 103.695 126.951 103.288 127.549 103.288C128.148 103.288 130.663 102.33 133.058 101.204C135.165 100.222 135.453 99.7193 134.255 99.2164C133.848 99.0487 133.465 98.8332 133.417 98.7374C133.345 98.6416 134.04 98.3781 134.926 98.1386C136.603 97.7315 141.201 95.6957 141.201 95.3604C141.201 95.0969 139.98 94.1868 139.62 94.1868C138.878 94.1868 139.117 93.6839 140.051 93.2049C140.626 92.9175 142.015 92.0313 143.165 91.2649C144.985 90.0195 145.249 89.78 145.033 89.3968C144.889 89.1573 144.41 88.8219 143.955 88.6543C142.925 88.2711 142.901 88.0795 143.907 87.5765C144.865 87.0975 149.105 83.8882 149.105 83.6487C149.105 83.2655 148.362 82.8823 147.165 82.5949L145.919 82.3314L147.26 81.3016C149.392 79.6969 151.739 77.4216 151.739 76.9426C151.739 76.4636 151.092 76.2241 149.775 76.2241C149.272 76.2241 148.865 76.2001 148.865 76.1522C148.865 76.1043 149.847 75.0505 151.021 73.8051C152.218 72.5836 153.176 71.4819 153.176 71.3861C153.176 71.2903 152.721 71.0748 152.17 70.9311C151.595 70.7634 151.116 70.6197 151.069 70.5958C151.045 70.5718 151.691 69.518 152.506 68.2965C154.014 66.0452 156.481 61.0156 156.218 60.7522C156.05 60.5606 154.158 61.1114 149.703 62.6443C147.308 63.4586 145.632 64.201 144.626 64.8716C142.997 65.9734 143.069 65.9973 142.758 64.201C142.686 63.6981 142.542 63.243 142.422 63.1951C142.015 62.9317 137.537 66.9793 136.65 68.4163L136.219 69.1108L135.932 68.057C135.453 66.165 135.189 65.4464 134.95 65.4464C134.639 65.4464 130.926 69.9731 130.471 70.8832C130.256 71.3143 130.016 71.6735 129.92 71.6735C129.825 71.6735 129.585 71.0987 129.37 70.4042C129.178 69.7336 128.843 68.9192 128.627 68.6318C128.268 68.1049 128.244 68.1289 126.088 70.4042C124.795 71.7693 123.621 73.3021 123.19 74.1644L122.424 75.6253L122.137 74.6434C121.777 73.374 121.346 72.5836 121.107 72.6794C120.867 72.7752 118.496 75.5774 117.802 76.5833C117.538 76.9665 117.107 77.9006 116.844 78.6191C116.58 79.3376 116.221 79.9603 116.053 80.0082C115.79 80.104 115.766 79.3137 115.886 75.9606C115.981 73.6614 116.053 70.5479 116.053 69.015V66.2129L117.131 64.8956C118.185 63.6502 118.281 63.5783 119.143 63.6981C120.843 63.9376 122.52 62.4527 122.52 60.7522C122.52 59.1715 120.412 57.3033 119.047 57.6386C118.161 57.8542 116.82 59.1475 116.652 59.9618C116.556 60.369 116.604 60.9917 116.772 61.3988C117.059 62.0934 117.035 62.1413 115.694 63.3628L114.329 64.6082L114.353 72.0807C114.353 78.3557 114.305 79.5771 114.041 79.5771C113.586 79.5771 111.574 81.8524 110.592 83.481C110.161 84.1995 109.587 85.445 109.299 86.2353C108.868 87.5286 108.772 87.6484 108.365 87.4089C108.126 87.2652 107.886 87.1933 107.838 87.2412C107.599 87.5047 104.557 93.8276 104.557 94.0431C104.557 94.1868 104.365 94.5461 104.126 94.8574C103.791 95.2885 103.575 95.3604 102.952 95.2406L102.186 95.0969L104.078 91.3128C105.132 89.2531 105.994 87.4807 105.994 87.3849C105.994 87.2652 105.515 87.2412 104.916 87.2891C104.318 87.337 103.838 87.3131 103.838 87.2652C103.838 87.1933 104.054 86.9299 104.294 86.6664C104.557 86.379 105.491 84.7743 106.353 83.0978C107.838 80.2477 108.126 79.2179 107.383 79.4334C106.401 79.7448 105.755 79.7927 105.755 79.5771C105.755 79.4334 106.018 78.9305 106.353 78.4275C107.048 77.3498 108.581 73.4219 108.772 72.1286L108.94 71.1945L107.838 71.6017C107.215 71.8172 106.665 71.9609 106.593 71.8891C106.545 71.8172 106.832 70.6916 107.287 69.3743C108.15 66.8116 108.892 63.8657 108.7 63.6741C108.629 63.6262 108.054 63.722 107.383 63.9136C106.736 64.1292 106.138 64.2489 106.09 64.1771C106.042 64.1292 106.138 63.6262 106.353 63.0754C107.12 60.8719 107.718 56.2256 107.287 55.7945C107.144 55.6508 105.874 56.2495 104.988 56.8722C104.389 57.3033 104.318 57.0638 104.605 55.8663C104.94 54.4293 104.988 49.256 104.677 48.9447C104.485 48.7531 104.15 48.8249 103.527 49.1602C103.048 49.4237 102.593 49.6392 102.569 49.6392C102.521 49.6392 102.401 48.5375 102.33 47.1724C102.186 44.7773 101.851 43.029 101.443 42.5979C101.18 42.3344 100.102 43.005 99.3358 43.8672L98.8089 44.4899L98.9287 43.4122C99.1442 41.8075 98.0904 36.9456 97.5156 36.9456C97.348 36.9456 96.9648 37.209 96.6534 37.5443C96.3421 37.8796 96.0307 38.1431 95.9588 38.1431C95.887 38.1431 95.7912 37.688 95.7672 37.1132C95.7193 35.4367 93.2046 30 92.51 30C92.3423 30 91.7196 30.8383 91.0969 31.8442ZM94.3302 42.0231C95.3122 43.1966 95.2403 44.442 94.0907 45.5437L93.1806 46.406L93.2525 55.6747C93.2764 60.8001 93.3962 64.9674 93.5159 64.9674C93.6117 64.9674 94.7853 63.7699 96.1265 62.309L98.5215 59.6744L98.6173 57.3512C98.7131 55.1478 98.6892 55.0041 98.1623 54.573C97.4917 54.0461 96.8929 52.9683 96.8929 52.2498C96.8929 51.4595 98.5934 49.8788 99.4795 49.8788C100.917 49.8788 102.33 51.7948 101.994 53.2797C101.922 53.591 101.563 54.118 101.156 54.4533C100.485 55.076 100.462 55.1239 100.414 57.7105L100.366 60.3211L96.845 64.1292L93.3004 67.9373V70.1886C93.3004 72.3441 93.3243 72.4399 93.9949 72.9908C95.4798 74.2602 95.4798 76.1522 93.9949 77.206L93.3004 77.6851L93.3483 95.8154L93.4201 113.946L94.1147 114.018C94.4979 114.066 95.1685 114.042 95.6235 113.946L96.4139 113.802V98.1147L96.39 82.4033L98.4736 80.2238C99.6232 79.0023 100.653 77.9725 100.773 77.9485C100.869 77.9006 100.964 76.1283 100.964 73.9967V70.1168L100.15 69.4701C98.7371 68.3444 98.8329 66.6919 100.39 65.4704C101.97 64.225 104.054 65.4464 104.078 67.6259C104.078 68.4881 103.934 68.8713 103.431 69.4222L102.809 70.1168L102.857 73.9728L102.904 77.8288L100.509 80.6788L98.0904 83.5289L98.1623 95.1448L98.2102 106.761L106.353 98.6655C110.832 94.1868 114.664 90.4506 114.904 90.3308C115.119 90.2111 115.526 90.1153 115.79 90.1153C116.245 90.1153 116.293 89.9716 116.293 88.4148C116.293 86.882 116.221 86.6425 115.55 85.8042C114.88 84.9899 114.808 84.7264 114.927 83.8403C115.191 81.9482 117.203 80.8704 118.64 81.8764C120.125 82.9062 120.173 84.8222 118.712 86.1156C117.849 86.882 117.849 86.9059 117.921 88.4866L118.017 90.1153H120.125H122.256L123.118 89.2291C123.597 88.7261 124.268 88.1513 124.627 87.9118L125.274 87.5047L125.178 82.9062C125.106 78.5473 125.082 78.2838 124.532 77.4935C123.837 76.4636 123.813 75.8648 124.436 74.835C125.322 73.3979 126.735 73.2063 127.933 74.4039C128.603 75.0745 128.747 75.4098 128.747 76.2001C128.747 77.2539 127.956 78.3796 127.19 78.3796C126.879 78.3796 126.831 78.8826 126.831 81.9003V85.445L132.531 79.6969C135.645 76.5354 138.71 73.4938 139.357 72.9429C140.411 72.0088 140.482 71.8651 140.482 70.7634C140.482 69.3024 141.081 68.4402 142.422 68.057C143.261 67.7936 143.452 67.8175 144.027 68.2486C145.656 69.4701 145.704 71.7693 144.075 73.0387C143.644 73.3979 142.758 73.4219 142.159 73.1105C141.8 72.9189 141.033 73.5896 137.225 77.4456C134.734 79.9364 132.675 82.0919 132.627 82.2117C132.579 82.3554 133.561 82.4512 135.046 82.4512C137.441 82.4512 137.537 82.4272 137.8 81.8764C138.83 79.5771 141.919 80.6788 141.919 83.3373C141.919 84.1995 141.776 84.5348 141.225 85.1097C140.291 86.0437 139.405 86.0198 138.423 85.0617L137.68 84.3432L134.207 84.3193C132.291 84.3193 130.567 84.3911 130.375 84.5109C130.184 84.6306 128.867 85.9479 127.453 87.4089L124.843 90.1153H129.154H133.489L133.776 89.3968C134.399 87.8639 135.86 87.5286 137.129 88.6064C138.111 89.4207 138.351 90.0913 138.063 91.1691C137.8 92.1271 136.626 93.2288 135.86 93.2288C135.597 93.2288 135.022 92.9414 134.615 92.5582L133.896 91.9115L124.675 91.9834L115.454 92.0552L106.928 100.653L98.4018 109.276L98.282 111.455L98.1383 113.611L99.719 113.539L101.3 113.467L101.467 112.653C101.587 112.126 101.922 111.599 102.449 111.215C102.88 110.88 105.946 107.886 109.251 104.605C113.85 100.055 115.359 98.4021 115.574 97.7315C116.149 95.8873 117.945 95.3125 119.239 96.51L119.909 97.1806L125.226 97.3004C130.399 97.4201 130.543 97.4441 130.615 97.9231C130.759 98.8811 130.256 98.9769 125.082 99.0248C121.514 99.0727 120.125 99.1685 120.125 99.384C120.125 99.8391 118.688 100.893 118.065 100.893C117.73 100.893 117.179 100.701 116.844 100.486L116.221 100.055L111.431 104.964C108.796 107.671 105.946 110.689 105.108 111.671L103.551 113.467L113.275 113.539L122.999 113.587L123.741 112.748C125.035 111.263 126.711 111.838 127.31 113.97L127.621 115.071L129.01 114.952C130.208 114.856 130.447 114.904 130.854 115.359C131.621 116.149 131.717 116.988 131.142 117.586C130.064 118.76 128.795 118.472 127.741 116.844L127.214 116.03L126.591 116.485C125.466 117.299 124.819 117.299 123.885 116.461L123.023 115.718L113.227 115.574C105.371 115.455 103.407 115.479 103.24 115.742C103.144 115.91 103 116.796 102.928 117.682L102.809 119.335H110.569C121.825 119.335 126.543 119.55 127.046 120.053C127.262 120.293 128.076 120.987 128.867 121.61C129.657 122.233 131.142 123.574 132.172 124.58L134.016 126.4L138.04 126.328L142.039 126.232L142.901 125.274C143.955 124.029 144.913 123.933 145.991 124.963C147.596 126.496 146.901 128.819 144.626 129.49C144.243 129.609 143.859 129.442 143.141 128.795L142.159 127.909L138.83 128.005C136.076 128.053 135.429 128.148 135.046 128.484C134.782 128.723 134.495 128.915 134.375 128.915C134.279 128.915 133.345 128.077 132.291 127.047C129.633 124.46 129.681 124.484 126.448 124.843C123.334 125.179 122.4 124.963 122.4 123.885C122.4 123.334 122.52 123.262 123.837 123.095C127.166 122.664 127.118 122.688 126.495 121.825C126.184 121.394 125.777 121.37 120.915 121.299C118.041 121.275 115.287 121.227 114.808 121.179C114.305 121.155 113.898 121.155 113.898 121.203C113.898 121.323 117.155 124.963 119.239 127.142L121.107 129.082L123.071 129.226C124.771 129.322 125.106 129.274 125.537 128.867C125.825 128.627 126.424 128.364 126.903 128.268C127.621 128.172 127.861 128.244 128.364 128.795C129.992 130.543 129.106 133.465 126.951 133.465C126.088 133.465 125.537 132.962 125.13 131.861C124.915 131.19 124.747 131.094 123.717 130.951C123.071 130.855 121.969 130.855 121.274 130.951L119.981 131.118L119.31 130.088C118.927 129.514 117.682 128.077 116.556 126.903C115.406 125.705 113.802 123.957 112.988 123.047L111.503 121.37H107.455H103.431L103.815 121.873C104.365 122.592 108.389 126.951 110.976 129.657C112.604 131.358 113.179 132.148 113.179 132.603C113.179 134.16 111.527 132.819 105.419 126.328C102.809 123.526 100.581 121.323 100.462 121.37C100.366 121.442 96.6295 121.514 92.1747 121.538L84.0795 121.562L78.8104 127.047C74.3078 131.741 72.2001 133.705 71.6253 133.705C71.3619 133.705 71.5295 132.914 71.9846 132.028C72.248 131.525 74.4754 128.987 76.9423 126.4C79.4331 123.789 81.4929 121.562 81.5168 121.442C81.5887 121.323 79.96 121.275 77.4932 121.346L73.3737 121.442L71.4337 123.55C70.356 124.723 68.8231 126.376 68.0328 127.238C67.2424 128.1 66.1407 129.322 65.5659 129.945L64.536 131.07H62.2129H59.8897L59.4825 132.028C58.788 133.705 57.0396 133.825 55.9379 132.268C55.1715 131.19 55.2912 129.873 56.2492 128.987C56.6564 128.579 57.1833 128.196 57.3749 128.148C57.806 128.005 58.788 128.46 59.3628 129.082C59.722 129.49 60.0094 129.537 61.6381 129.442C63.7936 129.322 63.6978 129.394 67.5059 125.083C68.8471 123.574 70.1883 122.113 70.4757 121.802L71.0026 121.251L67.3622 121.275C63.8175 121.299 62.62 121.418 62.62 121.778C62.62 122.065 61.5423 124.316 61.207 124.723C60.9674 125.011 60.2968 125.083 57.6144 125.083H54.3093L52.7285 126.52C50.4533 128.579 50.0701 128.795 49.3276 128.46C48.9923 128.316 47.4595 128.196 45.7111 128.196C42.8131 128.196 42.6455 128.22 42.0467 128.795C41.7114 129.106 41.0887 129.466 40.6576 129.537C39.987 129.681 39.7714 129.585 38.9332 128.723C37.8315 127.621 37.6877 126.639 38.4302 125.418C39.0769 124.34 40.1067 123.981 41.0887 124.484C41.4958 124.7 42.0228 125.202 42.2383 125.586C42.4778 125.969 42.7652 126.328 42.9089 126.376C43.0766 126.448 44.777 126.52 46.741 126.544L50.2856 126.616L52.01 124.747C54.2614 122.304 55.6984 121.323 55.3391 122.472C55.1715 122.975 55.1954 122.999 57.6623 122.879C59.7939 122.783 60.3208 122.688 61.1111 122.185C61.9494 121.682 61.9973 121.61 61.5183 121.538C61.207 121.49 60.9674 121.346 60.9674 121.227C60.9674 121.107 60.5603 121.011 60.0813 120.987C59.5783 120.987 58.7401 120.915 58.2371 120.82C57.3989 120.676 57.351 120.604 57.6863 120.317C58.3808 119.742 60.9195 119.574 71.4577 119.43L81.8042 119.263V118.496C81.8042 118.065 81.7324 117.227 81.6605 116.604L81.4929 115.503H71.6014H61.7099L60.9195 116.173C59.7699 117.155 59.4825 117.203 58.3329 116.556C57.1593 115.886 57.1354 115.886 57.1354 116.293C57.1354 116.485 56.8001 117.083 56.4169 117.61C55.89 118.329 55.5307 118.616 55.0757 118.616C54.2853 118.616 53.1357 118.017 52.8243 117.395C52.4651 116.772 52.9201 115.359 53.5668 115C53.9979 114.784 55.5786 114.856 56.6803 115.167C56.9438 115.239 57.2072 114.904 57.5905 114.066C58.1892 112.748 59.0754 111.91 59.9136 111.91C60.2489 111.91 60.7519 112.269 61.2549 112.844L62.0452 113.778L71.4577 113.658C78.7146 113.539 80.8462 113.443 80.8462 113.227C80.8462 112.892 80.1037 112.102 73.3258 105.252C69.9249 101.803 68.416 100.438 68.1525 100.558C66.7634 101.156 65.8294 100.941 65.063 99.8151L64.4881 98.9769H59.5065H54.5009V98.2584C54.5009 97.1327 54.932 97.0609 59.9136 97.2046L64.4402 97.3483L65.1348 96.6058C66.476 95.1927 68.2483 95.7915 69.1824 98.0189C69.5896 99.0008 81.9 111.407 81.9719 110.904C81.9958 110.736 82.0916 109.659 82.1635 108.485C82.4269 104.917 83.1215 106.186 83.3849 110.784L83.5526 113.611L85.0136 113.539L86.4745 113.467L86.5464 111.814L86.6182 110.186L84.1513 107.551C82.7862 106.114 78.8344 102.019 75.3376 98.4739L68.9908 92.0313H60.1771H51.3394L50.5012 92.7498C49.2318 93.8755 48.0582 93.6599 47.0284 92.1031C46.1901 90.8098 46.6212 89.301 48.0343 88.5585C49.1599 87.9837 49.7827 88.1034 50.7886 89.1573L51.7226 90.1153H55.89H60.0573L57.3749 87.2412L54.6925 84.3672H51.1718L47.675 84.3911L46.8368 85.0857C45.6872 86.0677 44.8249 86.0437 43.819 84.942C42.6934 83.7684 42.6694 82.4751 43.7472 81.4692C44.8249 80.4633 45.9985 80.5112 47.0763 81.6129L47.8906 82.4512H50.3814H52.8722L48.0103 77.709C43.1963 73.0147 43.1484 72.9908 42.1904 73.0626C41.0168 73.1584 40.2025 72.7513 39.7475 71.8651C39.0529 70.5479 39.5559 68.8713 40.8492 68.2007C41.9509 67.6259 42.7173 67.7457 43.6274 68.6558C44.322 69.3503 44.4417 69.6378 44.4417 70.5958V71.6975L51.2676 78.4994L58.0934 85.3013V81.9722V78.6431L57.3989 78.2838C55.8421 77.4695 55.8421 75.1703 57.3749 74.1165C58.4287 73.3979 59.3867 73.5417 60.3208 74.5476C61.1591 75.4816 61.183 76.5833 60.3687 77.7569C59.7939 78.6191 59.7699 78.7389 59.7699 83.1218V87.6244L61.0393 88.8698L62.3087 90.1392L64.4642 90.0674L66.5958 89.9955L66.6676 88.3429C66.7395 86.882 66.6676 86.6185 66.1647 86.0677C64.7755 84.5827 64.6797 83.481 65.8533 82.3075C67.434 80.7267 69.5177 81.4932 69.7572 83.7205C69.877 84.7025 69.7812 85.0138 69.1345 86.0916C68.4878 87.1454 68.3681 87.5047 68.4399 88.6064C68.5118 89.8279 68.5597 89.9476 69.2782 90.235C69.6854 90.4027 73.6851 94.2108 78.3793 98.905L86.714 107.24L86.6901 95.3125L86.6422 83.4092L85.2531 81.8045C84.4627 80.9183 83.4807 79.7687 83.0736 79.2418L82.2832 78.2599V74.3799C82.2832 70.6676 82.2593 70.476 81.7084 69.8294C80.3672 68.2007 80.3432 67.2188 81.6366 65.9973C82.6664 65.0153 83.4328 64.8716 84.3669 65.4464C86.1871 66.5482 86.3548 68.3205 84.7741 69.6617L83.9118 70.4042L84.0076 74.0207L84.1034 77.6372L85.4207 79.146C86.1392 79.9843 87.1451 81.1578 87.6241 81.7566L88.5103 82.8583L88.5582 101.037L88.6301 119.215L89.8276 119.143C90.4982 119.095 91.1209 118.975 91.2167 118.856C91.3364 118.76 91.4801 109.443 91.552 98.1865L91.6957 77.6851L90.8335 76.7031C90.115 75.9367 89.9473 75.5535 89.9473 74.7631C89.9473 73.9488 90.091 73.6375 90.7856 73.0147L91.6238 72.2483V70.0928L91.5999 67.9612L88.151 64.2489L84.6783 60.5606V57.6147C84.6783 55.3394 84.6064 54.6688 84.3669 54.6688C83.6963 54.6688 82.9299 53.5192 82.9059 52.4893C82.882 51.6511 83.0017 51.4116 83.6963 50.8368C84.7501 49.9506 85.4686 49.783 86.3548 50.238C88.0552 51.1242 88.3905 53.112 87.0493 54.2377L86.259 54.9083L86.3308 57.2315C86.4027 59.9139 86.259 59.6505 89.5162 63.1472L91.5041 65.2788L91.4322 55.6747L91.3604 46.0467L90.6419 45.3521C90.115 44.8013 89.9473 44.4181 89.9473 43.6996C89.9473 41.2566 92.7495 40.1789 94.3302 42.0231ZM48.4175 118.233C49.5671 119.383 49.5671 120.604 48.4175 121.706C47.4355 122.664 46.5733 122.736 45.759 121.969C44.6573 120.939 44.6812 119.047 45.8069 117.993C46.6691 117.203 47.4355 117.251 48.4175 118.233ZM138.59 117.922C139.213 118.544 139.74 119.79 139.596 120.269C139.285 121.251 138.926 121.73 138.207 122.065C137.082 122.592 136.052 122.209 135.453 120.987C134.71 119.526 134.902 118.808 136.339 117.85C137.225 117.275 137.968 117.299 138.59 117.922Z" fill="white"/>
<path d="M91.8634 43.2925C91.4323 43.7954 91.7436 44.3702 92.4621 44.3702C92.7974 44.3702 93.1327 44.2026 93.2046 44.011C93.3722 43.6038 92.9172 42.9332 92.4621 42.9332C92.2945 42.9332 92.031 43.1009 91.8634 43.2925Z" fill="white"/>
<path d="M84.7502 52.178C84.5586 52.657 84.9418 53.3276 85.4687 53.4234C85.8998 53.5192 86.4507 52.6331 86.2591 52.1301C86.0914 51.6751 84.9418 51.699 84.7502 52.178Z" fill="white"/>
<path d="M98.7131 52.2019C98.6173 52.4415 98.737 52.7768 99.0005 53.0402C99.5034 53.5671 100.246 53.3995 100.246 52.7768C100.246 51.8906 99.0005 51.4116 98.7131 52.2019Z" fill="white"/>
<path d="M82.9299 67.0272C82.6425 67.3146 82.7383 68.2726 83.0736 68.3924C83.6006 68.584 84.0077 68.2008 83.9119 67.5781C83.8401 67.0272 83.2652 66.6919 82.9299 67.0272Z" fill="white"/>
<path d="M101.06 67.2427C100.725 68.1049 101.563 68.6798 102.138 67.9852C102.354 67.7217 102.33 67.5541 102.042 67.2667C101.563 66.7877 101.228 66.7877 101.06 67.2427Z" fill="white"/>
<path d="M41.3761 70.0449C40.8253 70.5958 41.0408 71.1945 41.7833 71.1945C42.5018 71.1945 42.9808 70.5239 42.6455 69.997C42.4539 69.6617 41.7354 69.6856 41.3761 70.0449Z" fill="white"/>
<path d="M142.159 70.2604C141.943 70.6197 141.967 70.8352 142.183 71.0987C142.542 71.5538 143.5 71.5298 143.692 71.0508C143.883 70.5478 143.883 70.5718 143.452 70.1407C142.949 69.6138 142.47 69.6617 142.159 70.2604Z" fill="white"/>
<path d="M91.9111 74.835C92.0548 75.2182 92.7733 75.6493 92.9649 75.4577C93.0368 75.3619 93.0607 75.1224 92.9889 74.9068C92.8212 74.4997 91.7674 74.4039 91.9111 74.835Z" fill="white"/>
<path d="M58.1413 75.793C57.7102 76.2241 57.782 76.6552 58.3568 76.9426C59.0274 77.3258 59.5304 77.0624 59.5304 76.3678C59.5304 75.6014 58.6921 75.2422 58.1413 75.793Z" fill="white"/>
<path d="M125.873 76.0804C125.873 76.7031 126.4 77.0384 126.783 76.6552C127.142 76.2959 126.831 75.5056 126.328 75.5056C126.017 75.5056 125.873 75.6732 125.873 76.0804Z" fill="white"/>
<path d="M45.1842 82.7865C44.7531 83.2894 44.9686 84.0079 45.5195 84.0079C46.0943 84.0079 46.2859 83.1457 45.8069 82.7386C45.5434 82.4991 45.3997 82.523 45.1842 82.7865Z" fill="white"/>
<path d="M139.381 82.7865C139.189 83.3134 139.429 83.8882 139.884 83.8882C140.339 83.8882 140.363 83.0739 139.884 82.6907C139.596 82.4512 139.5 82.4751 139.381 82.7865Z" fill="white"/>
<path d="M66.9311 83.6726C66.7156 84.0798 66.7395 84.2714 67.0269 84.5588C67.2425 84.7504 67.5778 84.8462 67.7694 84.7744C68.2723 84.5828 68.2723 83.505 67.7694 83.3134C67.2425 83.1218 67.2425 83.1218 66.9311 83.6726Z" fill="white"/>
<path d="M116.7 83.5768C116.317 83.96 116.556 84.6067 117.155 84.7504C117.897 84.942 118.304 84.5827 118.089 83.9121C117.945 83.4331 117.059 83.2176 116.7 83.5768Z" fill="white"/>
<path d="M135.621 90.0195C135.237 90.4027 135.453 91.0733 135.956 91.0733C136.315 91.0733 136.435 90.9536 136.363 90.5464C136.291 90.0195 135.908 89.756 135.621 90.0195Z" fill="white"/>
<path d="M48.6571 90.4985C48.4894 90.9535 48.8966 91.5523 49.3995 91.5523C49.6391 91.5523 49.7109 91.3368 49.663 90.9056C49.5912 90.1392 48.8966 89.8758 48.6571 90.4985Z" fill="white"/>
<path d="M66.5 97.9949C66.1887 98.5697 66.3324 98.9769 66.8353 98.9769C67.3143 98.9769 67.5059 98.2105 67.0988 97.8273C66.8114 97.5398 66.7156 97.5398 66.5 97.9949Z" fill="white"/>
<path d="M117.658 98.1147C117.49 98.4979 117.682 98.7374 118.137 98.7374C118.305 98.7374 118.448 98.5218 118.448 98.2584C118.448 97.7075 117.849 97.6117 117.658 98.1147Z" fill="white"/>
<path d="M93.4201 115.55C93.3483 115.742 93.3004 116.604 93.3483 117.443L93.4201 118.975L94.7374 119.119C95.4559 119.191 96.1265 119.215 96.2462 119.167C96.342 119.119 96.4139 118.257 96.4139 117.275V115.503H95.5277C95.0248 115.503 94.3781 115.431 94.0907 115.359C93.7315 115.263 93.492 115.335 93.4201 115.55Z" fill="white"/>
<path d="M83.4568 115.67C83.4328 115.79 83.4089 116.652 83.3849 117.586L83.361 119.335H84.9896H86.5943V117.419V115.503H85.0375C84.1753 115.503 83.4568 115.574 83.4568 115.67Z" fill="white"/>
<path d="M98.0903 117.035C98.0903 119.263 98.1382 119.335 99.7908 119.335H101.204V117.419V115.503H99.6471H98.0903V117.035Z" fill="white"/>
<path d="M144.027 126.304C143.476 126.616 143.74 127.238 144.434 127.238C145.105 127.238 145.344 126.951 145.129 126.424C144.961 125.993 144.626 125.945 144.027 126.304Z" fill="white"/>
<path d="M39.9871 126.616C39.7715 127.19 40.2745 127.669 40.6577 127.286C40.8972 127.047 40.8493 126.903 40.5379 126.592C40.1787 126.232 40.1308 126.232 39.9871 126.616Z" fill="white"/>
<path d="M57.375 130.711C57.375 130.903 57.5427 131.07 57.7343 131.07C57.9259 131.07 58.0935 130.903 58.0935 130.711C58.0935 130.519 57.9259 130.352 57.7343 130.352C57.5427 130.352 57.375 130.519 57.375 130.711Z" fill="white"/>
<path d="M126.472 130.591C126.232 130.998 126.759 131.477 127.07 131.166C127.262 130.974 127.214 130.807 126.975 130.615C126.735 130.4 126.591 130.4 126.472 130.591Z" fill="white"/>
<path d="M46.8847 120.221C46.9326 120.46 47.1242 120.652 47.3158 120.652C47.5074 120.652 47.699 120.46 47.7469 120.221C47.7948 119.933 47.6751 119.814 47.3158 119.814C46.9565 119.814 46.8368 119.933 46.8847 120.221Z" fill="white"/>
<path d="M137.129 120.293C137.129 120.412 137.225 120.532 137.345 120.532C137.489 120.532 137.656 120.412 137.728 120.293C137.8 120.149 137.704 120.053 137.513 120.053C137.297 120.053 137.129 120.149 137.129 120.293Z" fill="white"/>
<path d="M65.0869 49.3997C64.6318 49.6872 64.1288 50.2859 63.9133 50.7889C63.7217 51.2679 63.0511 52.154 62.4523 52.7288L61.3267 53.7587L62.4523 52.8965C63.6738 51.9385 63.8414 51.8906 63.8414 52.3696C63.8414 52.8007 65.3743 54.1419 66.0928 54.3335C66.8592 54.5251 68.0327 53.8785 68.5597 52.9923C69.0387 52.178 68.9908 52.178 72.1761 52.5372C73.9485 52.7288 74.8107 52.7288 75.601 52.5133C77.1818 52.0822 76.3675 51.8187 72.5115 51.5074C69.1824 51.2439 69.1824 51.2439 68.9429 50.5733C68.6315 49.783 67.3382 48.9207 66.476 48.9207C66.1407 48.9207 65.518 49.1363 65.0869 49.3997Z" fill="white"/>
<path d="M116.293 49.5435C115.885 49.9027 115.359 50.5494 115.119 51.0284L114.688 51.8667L112.317 51.8188C111 51.7948 109.61 51.8906 109.227 52.0343C108.557 52.2978 108.533 52.3217 108.964 52.5612C109.419 52.8247 113.179 52.681 114.281 52.3696C114.664 52.2738 114.903 52.4654 115.43 53.1839C116.939 55.3634 119.167 55.076 120.556 52.4894C120.987 51.723 120.987 51.5793 120.675 50.9326C120.46 50.5494 120.029 49.9506 119.694 49.5674C118.855 48.6813 117.37 48.6573 116.293 49.5435Z" fill="white"/>
<path d="M128.507 56.513C128.316 56.5849 127.789 56.9681 127.382 57.3752C126.471 58.2374 126.352 59.2434 126.974 60.5606C127.501 61.6384 128.172 62.0934 129.274 62.0934C130.471 62.0934 131.86 60.7762 131.86 59.6266C131.86 58.4051 131.405 57.1118 130.83 56.7046C130.327 56.3454 129.226 56.2496 128.507 56.513Z" fill="white"/>
<path d="M53.423 57.3513C52.8961 57.8782 52.5608 58.453 52.4411 59.0518C52.2974 59.89 52.3692 60.0337 53.3751 61.0157C54.3331 61.9976 54.5487 62.0934 55.5546 62.0934C56.4887 62.0934 56.824 61.9737 57.3748 61.4228C58.7879 60.0098 58.4286 57.6387 56.7042 56.9441C55.339 56.3454 54.3571 56.4891 53.423 57.3513Z" fill="white"/>
<path d="M64.4163 57.9979C62.596 58.8122 61.9015 60.8959 62.8834 62.5006C63.5301 63.5783 64.1768 63.8418 65.6377 63.6981C66.8592 63.5783 66.931 63.6023 67.8651 64.5603C68.392 65.1111 68.9429 65.8057 69.0866 66.0931C69.2542 66.4284 69.35 68.6797 69.35 72.5597C69.374 76.727 69.4698 78.7149 69.6614 79.1939L69.9727 79.8885L70.3559 78.9544C70.6912 78.188 70.787 76.7749 70.9068 71.4819C71.0505 65.686 71.0265 64.8956 70.6912 64.3687C70.4757 64.0334 70.1404 63.7699 69.9727 63.7699C69.7811 63.7699 69.2782 63.4825 68.871 63.1472C68.2723 62.6203 68.1525 62.3808 68.2723 61.83C68.7273 59.8181 68.3202 58.7404 66.8352 58.0219C65.6377 57.447 65.6377 57.447 64.4163 57.9979Z" fill="white"/>
<path d="M149.129 88.1753C148.865 88.4387 148.53 89.0854 148.362 89.6363C148.099 90.4985 148.123 90.738 148.578 91.7439C149.2 93.109 149.488 94.3066 149.703 96.2705C149.823 97.3243 149.967 97.7794 150.206 97.7794C150.374 97.7794 150.589 97.5399 150.637 97.2285C150.685 96.9411 150.925 95.7436 151.14 94.57C151.332 93.3965 151.691 92.1271 151.883 91.7199C152.362 90.8338 152.194 89.3249 151.547 88.4627C150.949 87.6484 149.799 87.5047 149.129 88.1753Z" fill="white"/>
<path d="M33.6881 88.3669C33.0654 88.798 32.4667 90.0434 32.4667 90.9056C32.4667 91.217 32.778 91.8876 33.1852 92.4145C33.736 93.133 33.9037 93.612 33.9037 94.5461C33.9276 95.1927 33.9995 95.9112 34.0953 96.1028C34.4306 96.8213 34.9575 96.4621 35.221 95.3604C35.3886 94.7616 35.7958 93.636 36.155 92.8695C36.9933 91.0493 36.9693 89.8518 36.1311 88.9417C35.2928 88.0555 34.4066 87.84 33.6881 88.3669Z" fill="white"/>
<path d="M149.703 99.5996C148.626 100.15 148.195 100.629 147.907 101.516L147.62 102.33H144.362C139.572 102.354 134.231 102.713 130.878 103.288C129.25 103.551 127.885 103.839 127.813 103.911C127.454 104.246 128.579 104.462 130.184 104.366C131.166 104.318 135.501 104.198 139.788 104.126L147.572 103.983L147.859 104.605C148.53 106.042 151.069 106.641 152.625 105.683C154.733 104.414 154.709 100.821 152.577 99.8391C151.332 99.2643 150.47 99.1924 149.703 99.5996Z" fill="white"/>
<path d="M33.2809 99.6714C31.2452 100.174 30.2393 101.923 30.7901 103.959C31.4847 106.593 35.3646 107.24 36.7058 104.964L37.1369 104.222L43.9628 104.27C50.4054 104.318 56.5846 104.078 56.2972 103.815C56.2493 103.743 55.0757 103.48 53.7345 103.24C51.8424 102.881 49.639 102.761 44.2981 102.641L37.3285 102.521L36.8735 101.54C36.131 99.9588 34.8377 99.2882 33.2809 99.6714Z" fill="white"/>
<path d="M148.027 106.787C147.644 107.098 147.189 107.361 147.045 107.385C146.734 107.385 145.871 108.319 145.68 108.894C145.488 109.445 146.494 110.499 147.189 110.499C147.476 110.499 148.075 110.786 148.53 111.122C149.703 112.032 150.446 111.96 151.404 110.834C152.41 109.637 152.601 108.822 152.098 107.769C151.356 106.236 149.296 105.733 148.027 106.787Z" fill="white"/>
<path d="M34.0952 109.371C33.5204 109.659 32.8258 110.736 32.5863 111.694C32.4187 112.413 33.2809 113.611 34.4066 114.185C35.0053 114.521 35.1969 114.497 36.4184 114.042C37.3524 113.682 37.8554 113.347 38.0949 112.868C38.6458 111.79 38.55 110.617 37.8314 109.755C37.2566 109.084 37.089 109.012 35.8915 109.06C35.1969 109.084 34.3826 109.228 34.0952 109.371Z" fill="white"/>
<path d="M54.9798 141.297C53.8062 141.728 52.6327 143.716 52.944 144.698C53.1835 145.464 54.4529 146.398 55.2672 146.398C56.6563 146.398 58.3328 144.89 58.3328 143.644C58.3328 142.183 56.345 140.794 54.9798 141.297Z" fill="white"/>
<path d="M128.507 141.584C127.717 141.8 126.831 143.165 126.831 144.171C126.831 145.369 127.909 146.398 129.154 146.398C130.184 146.398 130.878 145.991 131.621 144.961C132.124 144.267 132.124 144.243 131.669 143.237C131.429 142.662 131.07 142.087 130.878 141.944C130.399 141.561 129.226 141.369 128.507 141.584Z" fill="white"/>
<defs>
<linearGradient id="paint0_linear_17_1260" x1="60.9559" y1="-47.8944" x2="119.397" y2="154.923" gradientUnits="userSpaceOnUse">
<stop stop-color="#33634A"/>
<stop offset="0.147059" stop-color="#33634A"/>
<stop offset="1" stop-color="#73994A"/>
</linearGradient>
</defs>
</svg>
