<svg width="900" height="900" viewBox="0 0 900 900" fill="none" xmlns="http://www.w3.org/2000/svg">
<g clip-path="url(#clip0_191_12)">
<g clip-path="url(#clip1_191_12)">
<path d="M886.539 558.822C826.413 800.024 582.041 946.644 341.186 886.519C99.9783 826.394 -46.6448 582.028 13.4812 341.178C73.6073 99.9761 317.628 -46.6437 558.835 13.4809C799.691 73.254 946.665 317.62 886.539 558.822Z" fill="url(#paint0_linear_191_12)"/>
</g>
<g clip-path="url(#clip2_191_12)">
<path d="M707.178 645.854L741.095 638.077L717.394 612.6C715.31 610.36 671.766 564.118 603.51 534.595C673.489 491.635 711.687 428.825 713.394 425.981L730.492 397.468L697.288 395.604C693.952 395.413 619.602 391.703 544.259 426.16C546.977 418.684 549.483 411.211 551.773 403.755C589.028 282.488 568.925 170.031 568.053 165.3L561.044 127.411L533.982 154.825C530.604 158.25 450.833 240.025 413.578 361.292C411.288 368.748 409.166 376.34 407.218 384.052C364.212 313.246 300.603 274.574 297.738 272.851L269.213 255.752L267.355 288.947C267.171 292.258 263.525 365.683 297.308 440.519C224.249 426.63 162.246 440.447 159.265 441.13L125.345 448.915L149.047 474.392C151.441 476.963 208.708 537.761 295.32 564.369C298.461 565.334 301.641 566.251 304.853 567.12C274.56 595.259 259.559 626.488 258.73 628.254L247.274 652.522L273.796 656.67C276.207 657.048 329.483 665.003 381.721 642.696L359.984 713.452L398.399 725.253L420.136 654.498C450.832 702.282 499.386 725.61 501.601 726.653L525.878 738.11L530.022 711.596C530.32 709.667 535.446 675.405 526.176 635.112C529.322 636.197 532.469 637.222 535.617 638.189C622.238 664.8 703.753 646.637 707.185 645.856L707.178 645.854ZM473.399 607.877C473.787 608.585 474.184 609.297 474.555 610.008C485.877 631.363 489.924 654.465 491.089 672.582C476.805 661.499 460.025 645.213 448.639 623.738C443.482 614.011 439.428 603.133 436.591 591.391L428.628 558.471L403.556 581.242C394.609 589.364 385.147 596.09 375.426 601.246C354.108 612.54 331.048 616.587 312.932 617.758C324.072 603.43 340.359 586.634 361.678 575.34C362.402 574.957 363.122 574.588 363.841 574.22L423.339 544.157L357.123 536.344C339.646 534.284 322.819 530.791 307.125 525.97C266.994 513.641 233.513 492.468 210.773 475.159C239.311 473.594 278.905 474.87 319.036 487.199C322.969 488.407 327.033 489.765 331.133 491.252L388.765 512.064L354.651 461.175C349.644 453.7 345.053 446.051 341.011 438.426C320.768 400.236 312.616 360.143 309.402 331.453C331.292 350.16 359.834 379.347 380.159 417.681C386.404 429.459 391.903 442.213 396.505 455.584L424.722 537.542L435.442 451.538C438.85 424.158 444.423 397.764 452.004 373.088C472.544 306.226 507.937 251.505 533.151 218.235C535.335 259.93 533.901 325.084 513.363 391.938C505.783 416.614 495.576 441.585 483.024 466.156L443.6 543.35L512.964 491.369C524.279 482.888 535.998 475.424 547.771 469.181C585.931 448.966 625.99 440.828 654.681 437.617C635.908 459.544 606.68 488.112 568.528 508.329C560.902 512.369 552.808 516.122 544.461 519.494L487.668 542.456L547.036 557.587C551.261 558.666 555.397 559.819 559.322 561.025C599.454 573.353 632.935 594.526 655.675 611.836C627.137 613.4 587.543 612.124 547.412 599.796C531.718 594.974 515.84 588.421 500.213 580.311L441.031 549.601L473.391 607.874L473.399 607.877Z" fill="white"/>
</g>
</g>
<defs>
<linearGradient id="paint0_linear_191_12" x1="44976" y1="-21.1972" x2="44976" y2="89990.9" gradientUnits="userSpaceOnUse">
<stop stop-color="#1A8754"/>
<stop offset="1" stop-color="#085833"/>
</linearGradient>
<clipPath id="clip0_191_12">
<rect width="900" height="900" fill="white"/>
</clipPath>
<clipPath id="clip1_191_12">
<rect width="900" height="900" fill="white"/>
</clipPath>
<clipPath id="clip2_191_12">
<rect width="644.151" height="619.245" fill="white" transform="translate(253.169 32.8301) rotate(17.0773)"/>
</clipPath>
</defs>
</svg>
