<svg width="2082" height="543" viewBox="0 0 2082 543" fill="none" xmlns="http://www.w3.org/2000/svg">
<g clip-path="url(#clip0_192_26)">
<path d="M534.879 337.156C498.603 482.681 351.165 571.142 205.849 534.866C60.3203 498.591 -28.1424 351.157 8.13368 205.844C44.4097 60.3189 191.635 -28.1417 337.164 8.1335C482.48 44.1966 571.155 191.631 534.879 337.156Z" fill="url(#paint0_linear_192_26)"/>
<g clip-path="url(#clip1_192_26)">
<path d="M434.39 397.453L455.627 391.773L440.075 376.236C438.709 374.87 410.151 346.682 366.376 329.607C409.571 300.904 432.244 260.399 433.257 258.565L443.396 240.183L422.388 239.763C420.278 239.719 373.248 239.071 326.47 262.531C328.014 257.752 329.425 252.979 330.699 248.222C351.431 170.85 336.151 100.344 335.492 97.3787L330.194 73.6292L313.738 91.5445C311.685 93.7829 263.199 147.203 242.467 224.575C241.192 229.332 240.027 234.171 238.975 239.082C210.192 195.381 169.14 172.426 167.291 171.405L148.888 161.265L148.478 182.254C148.438 184.348 147.825 230.764 170.878 277.218C124.429 270.118 85.5989 280.25 83.7323 280.749L62.4947 286.434L78.0458 301.971C79.6166 303.539 117.173 340.599 172.472 355.417C174.477 355.954 176.506 356.461 178.554 356.936C160.075 375.383 151.322 395.43 150.839 396.564L144.164 412.138L161.006 414.152C162.537 414.336 196.358 418.142 228.827 402.875L216.73 448.02L241.257 454.591L253.353 409.447C273.834 438.902 305.027 452.516 306.45 453.123L322.042 459.8L324.048 442.975C324.192 441.751 326.64 420.014 319.86 394.799C321.872 395.411 323.882 395.987 325.892 396.525C381.196 411.344 432.246 398.026 434.395 397.455L434.39 397.453ZM285.91 378.815C286.172 379.253 286.439 379.693 286.689 380.133C294.33 393.351 297.416 407.837 298.569 419.242C289.295 412.574 278.325 402.68 270.642 389.387C267.162 383.367 264.352 376.595 262.291 369.25L256.506 348.658L241.2 363.598C235.737 368.927 229.918 373.387 223.899 376.862C210.698 384.475 196.232 387.554 184.82 388.706C191.525 379.411 201.422 368.441 214.622 360.828C215.071 360.57 215.517 360.321 215.962 360.072L252.837 339.746L210.849 336.324C199.767 335.423 189.062 333.601 179.042 330.917C153.42 324.051 131.793 311.453 117.037 301.049C135.02 299.411 160.048 299.314 185.67 306.18C188.182 306.853 190.779 307.617 193.402 308.462L230.269 320.282L207.559 288.946C204.225 284.344 201.151 279.621 198.423 274.902C184.763 251.264 178.694 226.15 176.004 208.119C190.256 219.424 208.949 237.192 222.663 260.919C226.878 268.21 230.643 276.132 233.856 284.465L253.558 335.54L258.348 281.025C259.87 263.67 262.781 246.887 267 231.143C278.43 188.483 299.518 153.146 314.672 131.578C317.011 157.838 317.605 198.985 306.175 241.64C301.957 257.384 296.087 273.374 288.727 289.165L265.611 338.775L308.211 304.393C315.16 298.784 322.388 293.807 329.677 289.599C353.306 275.973 378.412 269.925 396.453 267.246C385.104 281.51 367.308 300.203 343.684 313.83C338.962 316.553 333.938 319.105 328.745 321.423L293.414 337.207L331.247 345.403C333.94 345.987 336.578 346.62 339.084 347.292C364.706 354.157 386.333 366.756 401.089 377.16C383.106 378.798 358.078 378.894 332.456 372.029C322.436 369.344 312.26 365.57 302.206 360.809L264.133 342.778L285.906 378.813L285.91 378.815Z" fill="white"/>
</g>
<path d="M669.158 418.137L615.906 227.023C615.164 224.178 614.546 221.271 614.051 218.303C613.68 215.21 613.494 212.674 613.494 210.695C613.494 203.768 615.721 198.14 620.174 193.811C624.627 189.481 630.379 187.316 637.43 187.316C643.862 187.316 649.119 189.543 653.201 193.996C657.283 198.326 660.314 205.005 662.293 214.035L699.588 376.76H702L741.521 214.035C743.872 204.758 747.088 198.016 751.17 193.811C755.376 189.481 761.066 187.316 768.24 187.316C775.415 187.316 781.105 189.481 785.311 193.811C789.64 198.14 792.918 204.882 795.145 214.035L834.666 376.76H837.078L873.631 214.035C877.465 196.223 885.815 187.316 898.68 187.316C905.607 187.316 911.297 189.481 915.75 193.811C920.203 198.14 922.43 203.706 922.43 210.51C922.43 212.489 922.244 214.901 921.873 217.746C921.626 220.591 921.193 223.003 920.574 224.982L867.322 418.137C864.725 427.414 861.261 434.094 856.932 438.176C852.726 442.134 846.974 444.113 839.676 444.113C832.007 444.113 825.76 442.01 820.936 437.805C816.235 433.599 812.648 426.734 810.174 417.209L769.354 262.092H767.312L726.121 418.137C723.895 426.919 720.431 433.475 715.73 437.805C711.03 442.01 705.031 444.113 697.732 444.113C690.434 444.113 684.497 442.258 679.92 438.547C675.467 434.836 671.88 428.033 669.158 418.137ZM954.9 414.982V268.957C954.9 260.051 957.56 253.186 962.879 248.361C968.198 243.413 975.62 240.939 985.145 240.939H1079.59C1085.53 240.939 1090.29 242.671 1093.88 246.135C1097.46 249.598 1099.26 253.866 1099.26 258.938C1099.26 264.009 1097.46 268.277 1093.88 271.74C1090.29 275.204 1085.53 276.936 1079.59 276.936H1001.47V324.436H1075.51C1081.2 324.436 1085.65 326.044 1088.87 329.26C1092.08 332.352 1093.69 336.311 1093.69 341.135C1093.69 345.959 1092.08 349.917 1088.87 353.01C1085.65 356.102 1081.2 357.648 1075.51 357.648H1001.47V407.004H1079.03C1085.34 407.004 1090.29 408.736 1093.88 412.199C1097.46 415.663 1099.26 419.992 1099.26 425.188C1099.26 430.259 1097.46 434.527 1093.88 437.99C1090.29 441.33 1085.34 443 1079.03 443H985.145C975.62 443 968.198 440.588 962.879 435.764C957.56 430.816 954.9 423.889 954.9 414.982ZM1141.19 414.982V268.957C1141.19 260.051 1143.85 253.186 1149.17 248.361C1154.49 243.413 1161.91 240.939 1171.43 240.939H1265.88C1271.81 240.939 1276.58 242.671 1280.16 246.135C1283.75 249.598 1285.54 253.866 1285.54 258.938C1285.54 264.009 1283.75 268.277 1280.16 271.74C1276.58 275.204 1271.81 276.936 1265.88 276.936H1187.76V324.436H1261.79C1267.49 324.436 1271.94 326.044 1275.15 329.26C1278.37 332.352 1279.98 336.311 1279.98 341.135C1279.98 345.959 1278.37 349.917 1275.15 353.01C1271.94 356.102 1267.49 357.648 1261.79 357.648H1187.76V407.004H1265.32C1271.63 407.004 1276.58 408.736 1280.16 412.199C1283.75 415.663 1285.54 419.992 1285.54 425.188C1285.54 430.259 1283.75 434.527 1280.16 437.99C1276.58 441.33 1271.63 443 1265.32 443H1171.43C1161.91 443 1154.49 440.588 1149.17 435.764C1143.85 430.816 1141.19 423.889 1141.19 414.982ZM1327.48 414.982V268.957C1327.48 260.051 1330.14 253.186 1335.46 248.361C1340.78 243.413 1348.2 240.939 1357.72 240.939H1408.38C1440.04 240.939 1463.98 249.475 1480.18 266.545C1496.51 283.492 1504.68 308.417 1504.68 341.32C1504.68 374.471 1496.45 399.706 1480 417.023C1463.67 434.341 1439.8 443 1408.38 443H1357.72C1348.2 443 1340.78 440.588 1335.46 435.764C1330.14 430.816 1327.48 423.889 1327.48 414.982ZM1374.79 407.004H1402.07C1420.99 407.004 1434.91 401.809 1443.82 391.418C1452.72 380.904 1457.18 364.452 1457.18 342.062C1457.18 320.168 1452.6 303.84 1443.45 293.078C1434.42 282.316 1420.62 276.936 1402.07 276.936H1374.79V407.004ZM1551.43 411.643V221.086C1551.43 210.572 1554.15 202.717 1559.6 197.521C1565.04 192.326 1573.27 189.729 1584.28 189.729H1655.34C1678.22 189.729 1696.28 195.357 1709.52 206.613C1722.88 217.746 1729.56 232.899 1729.56 252.072C1729.56 261.597 1727.83 270.132 1724.36 277.678C1721.02 285.223 1716.14 291.532 1709.71 296.604C1703.27 301.675 1695.54 305.324 1686.51 307.551V309.592C1698.02 310.705 1707.91 313.983 1716.2 319.426C1724.61 324.868 1731.1 332.043 1735.68 340.949C1740.38 349.855 1742.73 360.061 1742.73 371.564C1742.73 386.161 1739.08 398.778 1731.79 409.416C1724.61 420.054 1714.41 428.342 1701.17 434.279C1688.06 440.093 1672.47 443 1654.41 443H1584.28C1573.27 443 1565.04 440.464 1559.6 435.393C1554.15 430.197 1551.43 422.281 1551.43 411.643ZM1598.38 295.676H1632.33C1649.9 295.676 1662.7 292.645 1670.74 286.584C1678.78 280.399 1682.8 271.555 1682.8 260.051C1682.8 249.413 1679.46 241.063 1672.78 235.002C1666.23 228.941 1656.89 225.91 1644.76 225.91H1598.38V295.676ZM1598.38 406.818H1636.6C1657.26 406.818 1672.1 403.664 1681.13 397.355C1690.16 391.047 1694.68 381.646 1694.68 369.152C1694.68 356.783 1690.66 347.072 1682.62 340.021C1674.7 332.971 1663.13 329.445 1647.92 329.445H1598.38V406.818ZM1782.25 420.92V263.205C1782.25 256.278 1784.48 250.526 1788.93 245.949C1793.39 241.372 1799.01 239.084 1805.82 239.084C1812.5 239.084 1818.06 241.372 1822.52 245.949C1826.97 250.526 1829.2 256.278 1829.2 263.205V420.92C1829.2 427.723 1826.97 433.413 1822.52 437.99C1818.06 442.567 1812.5 444.855 1805.82 444.855C1799.01 444.855 1793.39 442.567 1788.93 437.99C1784.48 433.413 1782.25 427.723 1782.25 420.92ZM1920.67 421.662V277.863H1878.37C1871.81 277.863 1866.74 276.008 1863.15 272.297C1859.69 268.586 1857.96 264.318 1857.96 259.494C1857.96 254.423 1859.69 250.093 1863.15 246.506C1866.74 242.795 1871.81 240.939 1878.37 240.939H2010.11C2016.79 240.939 2021.86 242.795 2025.32 246.506C2028.78 250.093 2030.52 254.423 2030.52 259.494C2030.52 264.318 2028.78 268.586 2025.32 272.297C2021.86 276.008 2016.79 277.863 2010.11 277.863H1967.62V421.662C1967.62 428.218 1965.51 433.723 1961.31 438.176C1957.22 442.629 1951.53 444.855 1944.24 444.855C1936.81 444.855 1931 442.629 1926.79 438.176C1922.71 433.599 1920.67 428.094 1920.67 421.662Z" fill="#4D4D4D"/>
</g>
<defs>
<linearGradient id="paint0_linear_192_26" x1="27135.5" y1="-12.789" x2="27135.5" y2="54294.5" gradientUnits="userSpaceOnUse">
<stop stop-color="#1A8754"/>
<stop offset="1" stop-color="#085833"/>
</linearGradient>
<clipPath id="clip0_192_26">
<rect width="2082" height="543" fill="white"/>
</clipPath>
<clipPath id="clip1_192_26">
<rect width="456" height="438" fill="white" transform="translate(113.363) rotate(15)"/>
</clipPath>
</defs>
</svg>
