<svg width="2082" height="543" viewBox="0 0 2082 543" fill="none" xmlns="http://www.w3.org/2000/svg">
<g clip-path="url(#clip0_192_26)">
<path d="M534.879 337.156C498.603 482.681 351.165 571.142 205.849 534.867C60.3203 498.591 -28.1424 351.157 8.13368 205.844C44.4097 60.3189 191.635 -28.1417 337.164 8.1335C482.48 44.1966 571.155 191.631 534.879 337.156Z" fill="url(#paint0_linear_192_26)"/>
<g clip-path="url(#clip1_192_26)">
<path d="M434.39 397.453L455.627 391.773L440.075 376.236C438.709 374.87 410.151 346.682 366.376 329.607C409.571 300.904 432.244 260.399 433.256 258.565L443.396 240.183L422.388 239.763C420.278 239.719 373.248 239.071 326.47 262.531C328.014 257.752 329.425 252.979 330.699 248.222C351.431 170.85 336.151 100.344 335.492 97.3787L330.194 73.6292L313.738 91.5445C311.685 93.7829 263.199 147.203 242.467 224.575C241.192 229.332 240.027 234.171 238.975 239.082C210.192 195.381 169.14 172.426 167.291 171.405L148.888 161.265L148.478 182.254C148.438 184.348 147.825 230.764 170.878 277.218C124.429 270.118 85.5989 280.25 83.7323 280.749L62.4947 286.434L78.0458 301.971C79.6166 303.539 117.173 340.599 172.472 355.417C174.477 355.954 176.506 356.461 178.554 356.936C160.075 375.383 151.322 395.43 150.839 396.564L144.164 412.138L161.006 414.152C162.537 414.336 196.358 418.142 228.827 402.875L216.73 448.02L241.257 454.591L253.353 409.447C273.834 438.902 305.027 452.516 306.45 453.123L322.042 459.8L324.048 442.975C324.192 441.751 326.64 420.014 319.86 394.799C321.872 395.411 323.882 395.987 325.892 396.525C381.196 411.344 432.246 398.026 434.395 397.455L434.39 397.453ZM285.91 378.814C286.172 379.253 286.439 379.693 286.689 380.133C294.33 393.351 297.416 407.837 298.569 419.242C289.295 412.574 278.325 402.68 270.642 389.387C267.162 383.367 264.352 376.595 262.291 369.25L256.506 348.658L241.2 363.598C235.737 368.927 229.918 373.387 223.899 376.862C210.698 384.475 196.232 387.554 184.82 388.706C191.525 379.411 201.422 368.441 214.622 360.828C215.071 360.57 215.517 360.321 215.962 360.072L252.837 339.746L210.849 336.324C199.767 335.423 189.062 333.601 179.042 330.917C153.42 324.051 131.793 311.453 117.037 301.049C135.02 299.411 160.048 299.314 185.67 306.18C188.182 306.853 190.779 307.617 193.402 308.462L230.269 320.282L207.559 288.946C204.225 284.344 201.151 279.621 198.423 274.902C184.763 251.264 178.694 226.15 176.004 208.119C190.256 219.424 208.949 237.192 222.663 260.919C226.878 268.21 230.643 276.132 233.856 284.465L253.558 335.54L258.348 281.025C259.87 263.67 262.781 246.887 267 231.143C278.43 188.483 299.518 153.146 314.672 131.578C317.011 157.838 317.605 198.985 306.175 241.64C301.957 257.384 296.087 273.374 288.727 289.165L265.611 338.775L308.211 304.393C315.16 298.784 322.388 293.807 329.677 289.599C353.306 275.973 378.412 269.925 396.453 267.246C385.104 281.51 367.308 300.203 343.684 313.83C338.962 316.553 333.938 319.105 328.745 321.423L293.414 337.207L331.247 345.403C333.94 345.987 336.578 346.62 339.084 347.292C364.706 354.157 386.333 366.756 401.089 377.16C383.106 378.798 358.078 378.894 332.456 372.029C322.436 369.344 312.26 365.57 302.206 360.809L264.133 342.778L285.906 378.813L285.91 378.814Z" fill="white"/>
</g>
<path d="M669.705 413.498L620.164 237.414C619.174 233.579 618.37 229.807 617.752 226.096C617.257 222.261 617.01 219.107 617.01 216.633C617.01 207.974 619.793 200.985 625.359 195.666C630.926 190.223 638.162 187.502 647.068 187.502C655.232 187.502 661.85 190.223 666.922 195.666C671.993 201.109 675.766 209.582 678.24 221.086L709.783 361.359H712.752L746.893 220.158C749.738 208.654 753.634 200.367 758.582 195.295C763.53 190.1 770.333 187.502 778.992 187.502C787.527 187.502 794.331 190.161 799.402 195.48C804.598 200.676 808.618 208.902 811.463 220.158L845.418 361.359H848.572L878.816 221.086C883.393 198.697 893.908 187.502 910.359 187.502C919.142 187.502 926.255 190.161 931.697 195.48C937.264 200.799 940.047 207.665 940.047 216.076C940.047 218.674 939.861 221.704 939.49 225.168C939.119 228.632 938.562 231.477 937.82 233.703L888.279 413.498C885.311 424.136 880.919 431.991 875.105 437.062C869.415 442.01 861.932 444.484 852.654 444.484C842.882 444.484 834.842 441.949 828.533 436.877C822.348 431.682 817.771 423.332 814.803 411.828L780.291 281.203H777.879L742.996 413.498C740.398 423.641 736.007 431.372 729.822 436.691C723.637 441.887 715.968 444.484 706.814 444.484C697.661 444.484 689.992 442.258 683.807 437.805C677.745 433.228 673.045 425.126 669.705 413.498ZM968.436 410.9V270.627C968.436 260.855 971.466 253.062 977.527 247.248C983.589 241.311 991.629 238.342 1001.65 238.342H1098.5C1105.43 238.342 1111.18 240.568 1115.76 245.021C1120.34 249.351 1122.62 254.732 1122.62 261.164C1122.62 267.596 1120.34 272.977 1115.76 277.307C1111.31 281.636 1105.55 283.801 1098.5 283.801H1028.55V319.982H1095.54C1101.97 319.982 1107.16 321.962 1111.12 325.92C1115.08 329.878 1117.06 334.826 1117.06 340.764C1117.06 346.701 1115.08 351.587 1111.12 355.422C1107.16 359.257 1101.97 361.174 1095.54 361.174H1028.55V397.541H1097.76C1105.18 397.541 1111.18 399.706 1115.76 404.035C1120.34 408.365 1122.62 413.807 1122.62 420.363C1122.62 426.796 1120.34 432.176 1115.76 436.506C1111.18 440.835 1105.12 443 1097.58 443H1001.65C991.629 443 983.589 440.093 977.527 434.279C971.466 428.342 968.436 420.549 968.436 410.9ZM1159.55 410.9V270.627C1159.55 260.855 1162.58 253.062 1168.64 247.248C1174.7 241.311 1182.74 238.342 1192.76 238.342H1289.62C1296.54 238.342 1302.3 240.568 1306.87 245.021C1311.45 249.351 1313.74 254.732 1313.74 261.164C1313.74 267.596 1311.45 272.977 1306.87 277.307C1302.42 281.636 1296.67 283.801 1289.62 283.801H1219.67V319.982H1286.65C1293.08 319.982 1298.28 321.962 1302.23 325.92C1306.19 329.878 1308.17 334.826 1308.17 340.764C1308.17 346.701 1306.19 351.587 1302.23 355.422C1298.28 359.257 1293.08 361.174 1286.65 361.174H1219.67V397.541H1288.88C1296.3 397.541 1302.3 399.706 1306.87 404.035C1311.45 408.365 1313.74 413.807 1313.74 420.363C1313.74 426.796 1311.45 432.176 1306.87 436.506C1302.3 440.835 1296.24 443 1288.69 443H1192.76C1182.74 443 1174.7 440.093 1168.64 434.279C1162.58 428.342 1159.55 420.549 1159.55 410.9ZM1350.66 410.9V270.441C1350.66 260.793 1353.69 253.062 1359.75 247.248C1365.82 241.311 1373.86 238.342 1383.88 238.342H1440.47C1472.5 238.465 1496.81 247.124 1513.39 264.318C1529.96 281.389 1538.25 306.499 1538.25 339.65C1538.25 373.173 1529.9 398.778 1513.2 416.467C1496.5 434.156 1472.26 443 1440.47 443H1383.88C1373.86 443 1365.82 440.093 1359.75 434.279C1353.69 428.342 1350.66 420.549 1350.66 410.9ZM1411.89 397.541H1430.45C1446.78 397.541 1458.59 393.088 1465.89 384.182C1473.18 375.275 1476.83 360.803 1476.83 340.764C1476.83 321.59 1473 307.365 1465.33 298.088C1457.78 288.687 1446.16 283.986 1430.45 283.986H1411.89V397.541ZM1578.14 407.932V224.797C1578.14 213.54 1581.17 204.882 1587.23 198.82C1593.42 192.759 1602.26 189.729 1613.77 189.729H1690.4C1714.4 189.729 1733.38 195.295 1747.36 206.428C1761.34 217.561 1768.33 232.714 1768.33 251.887C1768.33 261.535 1766.47 270.194 1762.76 277.863C1759.05 285.533 1753.79 291.903 1746.99 296.975C1740.31 301.923 1732.33 305.324 1723.05 307.18V309.963C1734.43 310.581 1744.39 313.612 1752.93 319.055C1761.46 324.497 1768.14 331.734 1772.97 340.764C1777.91 349.67 1780.39 359.813 1780.39 371.193C1780.39 385.542 1776.68 398.098 1769.26 408.859C1761.96 419.621 1751.69 428.033 1738.46 434.094C1725.34 440.031 1709.94 443 1692.25 443H1613.77C1602.26 443 1593.42 440.031 1587.23 434.094C1581.17 428.033 1578.14 419.312 1578.14 407.932ZM1638.82 292.707H1668.32C1682.3 292.707 1692.44 289.924 1698.75 284.357C1705.18 278.791 1708.4 271.493 1708.4 262.463C1708.4 253.557 1705.49 246.444 1699.68 241.125C1693.86 235.806 1685.57 233.146 1674.81 233.146H1638.82V292.707ZM1638.82 399.582H1671.66C1688.11 399.582 1699.92 396.613 1707.1 390.676C1714.4 384.615 1718.04 376.451 1718.04 366.184C1718.04 355.793 1714.64 347.505 1707.84 341.32C1701.16 335.135 1691.14 332.043 1677.78 332.043H1638.82V399.582ZM1814.53 413.684V267.844C1814.53 259.061 1817.44 251.701 1823.25 245.764C1829.19 239.702 1836.42 236.672 1844.96 236.672C1853.49 236.672 1860.67 239.702 1866.48 245.764C1872.3 251.701 1875.2 259.061 1875.2 267.844V413.684C1875.2 422.466 1872.3 429.888 1866.48 435.949C1860.67 441.887 1853.49 444.855 1844.96 444.855C1836.42 444.855 1829.19 441.825 1823.25 435.764C1817.44 429.702 1814.53 422.342 1814.53 413.684ZM1959.63 414.982V285.471H1924.74C1916.95 285.471 1910.83 283.12 1906.38 278.42C1902.05 273.719 1899.88 268.277 1899.88 262.092C1899.88 255.66 1902.05 250.093 1906.38 245.393C1910.83 240.692 1916.95 238.342 1924.74 238.342H2055.93C2063.72 238.342 2069.78 240.692 2074.11 245.393C2078.56 250.093 2080.79 255.66 2080.79 262.092C2080.79 268.277 2078.56 273.719 2074.11 278.42C2069.78 283.12 2063.72 285.471 2055.93 285.471H2020.49V414.982C2020.49 423.27 2017.83 430.321 2012.51 436.135C2007.31 441.949 1999.89 444.855 1990.24 444.855C1980.59 444.855 1973.05 441.949 1967.61 436.135C1962.29 430.321 1959.63 423.27 1959.63 414.982Z" fill="#4D4D4D"/>
</g>
<defs>
<linearGradient id="paint0_linear_192_26" x1="27135.5" y1="-12.789" x2="27135.5" y2="54294.5" gradientUnits="userSpaceOnUse">
<stop stop-color="#1A8754"/>
<stop offset="1" stop-color="#085833"/>
</linearGradient>
<clipPath id="clip0_192_26">
<rect width="2082" height="543" fill="white"/>
</clipPath>
<clipPath id="clip1_192_26">
<rect width="456" height="438" fill="white" transform="translate(113.363) rotate(15)"/>
</clipPath>
</defs>
</svg>
